<svg height="500" width="1000" id="container"
    style="background-color: white; transform-origin: 0% 0%">
    <g id="group-background">
        <line x1="0" y1="384" x2="1000" y2="384" style="stroke:red;stroke-width:2"></line>
    </g>
    <g id="group-objects">
        <polygon points="73,383 74,384 272,383 234,345 111,345"
            style="fill:lightgray;stroke:black;stroke-width:0.5" id="svg-hill0"></polygon>
        <circle cx="453" cy="316.5" r="6.25" id="svg-pig0"
            style="fill:#1AFF1A;stroke:black;stroke-width:0.5"></circle>
        <circle cx="479.5" cy="346.5" r="6.5" id="svg-pig1"
            style="fill:#1AFF1A;stroke:black;stroke-width:0.5"></circle>
        <circle cx="507" cy="373" r="10.5" id="svg-pig2"
            style="fill:#1AFF1A;stroke:black;stroke-width:0.5"></circle>
        <circle cx="545.5" cy="377" r="6.25" id="svg-pig3"
            style="fill:#1AFF1A;stroke:black;stroke-width:0.5"></circle>
        <circle cx="549.5" cy="318" r="5.75" id="svg-pig4"
            style="fill:#1AFF1A;stroke:black;stroke-width:0.5"></circle>
        <circle cx="615" cy="347" r="6.5" id="svg-pig5"
            style="fill:#1AFF1A;stroke:black;stroke-width:0.5"></circle>
        <circle cx="205.5" cy="253" r="4.75" id="svg-redbird0"
            style="fill:red;stroke:black;stroke-width:0.5"></circle>
        <circle cx="131.5" cy="317.5" r="5.5" id="svg-redbird2"
            style="fill:red;stroke:black;stroke-width:0.5"></circle>
        <polygon
            points="492.5894188855126,359.13145509474856 486.92640786844476,358.77516864019805 485.4105811144874,382.86854490525144 491.07359213155524,383.22483135980195"
            style="fill:#808080;stroke:black;stroke-width:0.5" id="svg-stone16"></polygon>
        <polygon
            points="606.0000000384613,359.00000000801276 601.0000000384613,358.99999999198724 600.9999999615387,382.99999999198724 605.9999999615387,383.00000000801276"
            style="fill:#808080;stroke:black;stroke-width:0.5" id="svg-stone37"></polygon>
        <polygon
            points="656.0000000384613,359.0000000096153 650.0000000384613,358.9999999903847 649.9999999615387,382.9999999903847 655.9999999615387,383.0000000096153"
            style="fill:#808080;stroke:black;stroke-width:0.5" id="svg-stone45"></polygon>
        <polygon
            points="700.7499999876791,322.75000000007094 697.2499999983722,326.25000001315993 701.2500000123209,330.24999999992906 704.7500000016278,326.74999998684007"
            style="fill:#808080;stroke:black;stroke-width:0.5" id="svg-stone51"></polygon>
        <circle cx="149.5" cy="313.5" r="8" id="svg-whitebird1"
            style="fill:white;stroke:black;stroke-width:0.5"></circle>
        <polygon points="382,334 382,340 406,340 406,334"
            style="fill:#E6991A;stroke:black;stroke-width:0.5" id="svg-wood0"></polygon>
        <polygon
            points="393.00000001923064,341.0000000096153 387.00000001923064,340.9999999903847 386.99999998076936,352.9999999903847 392.99999998076936,353.0000000096153"
            style="fill:#E6991A;stroke:black;stroke-width:0.5" id="svg-wood1"></polygon>
        <polygon points="437,353 437,359 498,359 498,353"
            style="fill:#E6991A;stroke:black;stroke-width:0.5" id="svg-wood10"></polygon>
        <polygon
            points="444.0000000384612,359.0000000096153 438.0000000384612,358.9999999903847 437.9999999615388,382.9999999903847 443.9999999615388,383.0000000096153"
            style="fill:#E6991A;stroke:black;stroke-width:0.5" id="svg-wood11"></polygon>
        <polygon
            points="444.0000000400638,328.00000000801276 439.0000000400638,327.99999999198724 438.9999999599362,352.99999999198724 443.9999999599362,353.00000000801276"
            style="fill:#E6991A;stroke:black;stroke-width:0.5" id="svg-wood12"></polygon>
        <polygon
            points="443.0000000096153,316.00000000641023 439.0000000096153,315.99999999358977 438.9999999903847,321.99999999358977 442.9999999903847,322.00000000641023"
            style="fill:#E6991A;stroke:black;stroke-width:0.5" id="svg-wood13"></polygon>
        <polygon
            points="444.0000000240383,298.00000000801276 439.0000000240383,297.99999999198724 438.9999999759617,312.99999999198724 443.9999999759617,313.00000000801276"
            style="fill:#E6991A;stroke:black;stroke-width:0.5" id="svg-wood14"></polygon>
        <polygon
            points="472.0000000400638,328.0000000096153 466.0000000400638,327.9999999903847 465.9999999599362,352.9999999903847 471.9999999599362,353.0000000096153"
            style="fill:#E6991A;stroke:black;stroke-width:0.5" id="svg-wood15"></polygon>
        <polygon
            points="492.0000000400638,328.0000000096153 486.0000000400638,327.9999999903847 485.9999999599362,352.9999999903847 491.9999999599362,353.0000000096153"
            style="fill:#E6991A;stroke:black;stroke-width:0.5" id="svg-wood17"></polygon>
        <polygon
            points="492.0000000400638,298.0000000096153 486.0000000400638,297.9999999903847 485.9999999599362,322.9999999903847 491.9999999599362,323.0000000096153"
            style="fill:#E6991A;stroke:black;stroke-width:0.5" id="svg-wood18"></polygon>
        <polygon points="517,354 517,359 577,359 577,354"
            style="fill:#E6991A;stroke:black;stroke-width:0.5" id="svg-wood19"></polygon>
        <polygon
            points="393.0000000384612,359.00000000801276 388.0000000384612,358.99999999198724 387.9999999615388,382.99999999198724 392.9999999615388,383.00000000801276"
            style="fill:#E6991A;stroke:black;stroke-width:0.5" id="svg-wood2"></polygon>
        <polygon points="518,324 518,329 578,329 578,324"
            style="fill:#E6991A;stroke:black;stroke-width:0.5" id="svg-wood20"></polygon>
        <polygon points="518,294 518,299 579,299 579,294"
            style="fill:#E6991A;stroke:black;stroke-width:0.5" id="svg-wood21"></polygon>
        <polygon points="518,263 518,269 578,269 578,263"
            style="fill:#E6991A;stroke:black;stroke-width:0.5" id="svg-wood22"></polygon>
        <polygon
            points="524.0000000384613,359.00000000801276 519.0000000384613,358.99999999198724 518.9999999615387,382.99999999198724 523.9999999615387,383.00000000801276"
            style="fill:#E6991A;stroke:black;stroke-width:0.5" id="svg-wood23"></polygon>
        <polygon
            points="533.0000000400638,329.00000001923064 521.0000000400638,328.99999998076936 520.9999999599362,353.99999998076936 532.9999999599362,354.00000001923064"
            style="fill:#E6991A;stroke:black;stroke-width:0.5" id="svg-wood24"></polygon>
        <polygon
            points="527.0000000384613,299.00000000801276 522.0000000384613,298.99999999198724 521.9999999615387,322.99999999198724 526.9999999615387,323.00000000801276"
            style="fill:#E6991A;stroke:black;stroke-width:0.5" id="svg-wood25"></polygon>
        <polygon
            points="534.0000000384613,269.00000001923064 522.0000000384613,268.99999998076936 521.9999999615387,292.99999998076936 533.9999999615387,293.00000001923064"
            style="fill:#E6991A;stroke:black;stroke-width:0.5" id="svg-wood26"></polygon>
        <polygon points="543,331 543,352 546,354" style="fill:#E6991A;stroke:black;stroke-width:0.5"
            id="svg-wood27"></polygon>
        <polygon
            points="550.0000000384613,269.0000000096153 544.0000000384613,268.9999999903847 543.9999999615387,292.9999999903847 549.9999999615387,293.0000000096153"
            style="fill:#E6991A;stroke:black;stroke-width:0.5" id="svg-wood28"></polygon>
        <polygon
            points="563.0000000002627,319.50000000006963 559.4999999983916,315.9999999995449 554.9999999997373,320.49999999993037 558.5000000016084,324.0000000004551"
            style="fill:#E6991A;stroke:black;stroke-width:0.5" id="svg-wood29"></polygon>
        <polygon points="388,353 388,359 437,359 437,353"
            style="fill:#E6991A;stroke:black;stroke-width:0.5" id="svg-wood3"></polygon>
        <polygon
            points="576.0000000384613,359.00000001923064 564.0000000384613,358.99999998076936 563.9999999615387,382.99999998076936 575.9999999615387,383.00000001923064"
            style="fill:#E6991A;stroke:black;stroke-width:0.5" id="svg-wood30"></polygon>
        <polygon
            points="579.0000000400638,299.00000001923064 567.0000000400638,298.99999998076936 566.9999999599362,323.99999998076936 578.9999999599362,324.00000001923064"
            style="fill:#E6991A;stroke:black;stroke-width:0.5" id="svg-wood31"></polygon>
        <polygon
            points="575.0000000400638,269.0000000096153 569.0000000400638,268.9999999903847 568.9999999599362,293.9999999903847 574.9999999599362,294.0000000096153"
            style="fill:#E6991A;stroke:black;stroke-width:0.5" id="svg-wood32"></polygon>
        <polygon
            points="575.0000000400638,329.00000000801276 570.0000000400638,328.99999999198724 569.9999999599362,353.99999999198724 574.9999999599362,354.00000000801276"
            style="fill:#E6991A;stroke:black;stroke-width:0.5" id="svg-wood33"></polygon>
        <polygon points="598,353 598,359 659,359 659,353"
            style="fill:#E6991A;stroke:black;stroke-width:0.5" id="svg-wood34"></polygon>
        <polygon points="598,293 598,298 659,298 659,293"
            style="fill:#E6991A;stroke:black;stroke-width:0.5" id="svg-wood35"></polygon>
        <polygon points="598,262 598,268 659,268 659,262"
            style="fill:#E6991A;stroke:black;stroke-width:0.5" id="svg-wood36"></polygon>
        <polygon
            points="607.0000000384613,329.0000000096153 601.0000000384613,328.9999999903847 600.9999999615387,352.9999999903847 606.9999999615387,353.0000000096153"
            style="fill:#E6991A;stroke:black;stroke-width:0.5" id="svg-wood38"></polygon>
        <polygon points="601,323 601,329 662,329 662,323"
            style="fill:#E6991A;stroke:black;stroke-width:0.5" id="svg-wood39"></polygon>
        <polygon
            points="409.00000001923064,340.0000000096153 403.00000001923064,339.9999999903847 402.99999998076936,351.9999999903847 408.99999998076936,352.0000000096153"
            style="fill:#E6991A;stroke:black;stroke-width:0.5" id="svg-wood4"></polygon>
        <polygon
            points="607.0000000400638,298.0000000096153 601.0000000400638,297.9999999903847 600.9999999599362,322.9999999903847 606.9999999599362,323.0000000096153"
            style="fill:#E6991A;stroke:black;stroke-width:0.5" id="svg-wood40"></polygon>
        <polygon
            points="607.0000000400638,268.0000000096153 601.0000000400638,267.9999999903847 600.9999999599362,292.9999999903847 606.9999999599362,293.0000000096153"
            style="fill:#E6991A;stroke:black;stroke-width:0.5" id="svg-wood41"></polygon>
        <polygon
            points="654.0000000384613,329.00000000801276 649.0000000384613,328.99999999198724 648.9999999615387,352.99999999198724 653.9999999615387,353.00000000801276"
            style="fill:#E6991A;stroke:black;stroke-width:0.5" id="svg-wood42"></polygon>
        <polygon
            points="654.0000000400638,298.00000000801276 649.0000000400638,297.99999999198724 648.9999999599362,322.99999999198724 653.9999999599362,323.00000000801276"
            style="fill:#E6991A;stroke:black;stroke-width:0.5" id="svg-wood43"></polygon>
        <polygon
            points="654.0000000400638,268.00000000801276 649.0000000400638,267.99999999198724 648.9999999599362,292.99999999198724 653.9999999599362,293.00000000801276"
            style="fill:#E6991A;stroke:black;stroke-width:0.5" id="svg-wood44"></polygon>
        <polygon points="667,347 667,359 692,359 692,347"
            style="fill:#E6991A;stroke:black;stroke-width:0.5" id="svg-wood46"></polygon>
        <polygon
            points="681.0000000384613,359.00000001923064 669.0000000384613,358.99999998076936 668.9999999615387,382.99999998076936 680.9999999615387,383.00000001923064"
            style="fill:#E6991A;stroke:black;stroke-width:0.5" id="svg-wood47"></polygon>
        <polygon
            points="702.0000000384613,359.00000001923064 690.0000000384613,358.99999998076936 689.9999999615387,382.99999998076936 701.9999999615387,383.00000001923064"
            style="fill:#E6991A;stroke:black;stroke-width:0.5" id="svg-wood48"></polygon>
        <polygon points="691,329 691,335 715,335 715,329"
            style="fill:#E6991A;stroke:black;stroke-width:0.5" id="svg-wood49"></polygon>
        <polygon points="406,334 406,340 430,340 430,334"
            style="fill:#E6991A;stroke:black;stroke-width:0.5" id="svg-wood5"></polygon>
        <polygon
            points="704.0000000384613,335.00000001923064 692.0000000384613,334.99999998076936 691.9999999615387,358.99999998076936 703.9999999615387,359.00000001923064"
            style="fill:#E6991A;stroke:black;stroke-width:0.5" id="svg-wood50"></polygon>
        <polygon
            points="424.00000001762805,341.0000000096153 418.00000001762805,340.9999999903847 417.99999998237195,351.9999999903847 423.99999998237195,352.0000000096153"
            style="fill:#E6991A;stroke:black;stroke-width:0.5" id="svg-wood6"></polygon>
        <polygon
            points="432.0000000384612,359.0000000096153 426.0000000384612,358.9999999903847 425.9999999615388,382.9999999903847 431.9999999615388,383.0000000096153"
            style="fill:#E6991A;stroke:black;stroke-width:0.5" id="svg-wood7"></polygon>
        <polygon points="436,323 436,328 497,328 497,323"
            style="fill:#E6991A;stroke:black;stroke-width:0.5" id="svg-wood8"></polygon>
        <polygon points="436,292 436,298 497,298 497,292"
            style="fill:#E6991A;stroke:black;stroke-width:0.5" id="svg-wood9"></polygon>
        <circle cx="549.5" cy="318" r="29.2" style="fill:None;stroke:black;stroke-width:1"></circle>
        <circle cx="549.5" cy="318" r="58.4" style="fill:None;stroke:black;stroke-width:1"></circle>
        <circle cx="549.5" cy="318" r="87.6" style="fill:None;stroke:black;stroke-width:1"></circle>
        <circle cx="549.5" cy="318" r="116.8" style="fill:None;stroke:black;stroke-width:1"></circle>
        <circle cx="549.5" cy="318" r="146" style="fill:None;stroke:black;stroke-width:1"></circle>
        <circle cx="549.5" cy="318" r="175.2" style="fill:None;stroke:black;stroke-width:1"></circle>
        <line x1="549.5" y1="318" x2="376.2949192431123" y2="217.99999999999994"
            style="fill:None;stroke:black;stroke-width:1"></line>
        <line x1="549.5" y1="318" x2="449.50000000000006" y2="144.79491924311225"
            style="fill:None;stroke:black;stroke-width:1"></line>
        <line x1="549.5" y1="318" x2="649.5" y2="144.79491924311228"
            style="fill:None;stroke:black;stroke-width:1"></line>
        <line x1="549.5" y1="318" x2="722.7050807568878" y2="218"
            style="fill:None;stroke:black;stroke-width:1"></line>
        <line x1="549.5" y1="318" x2="722.7050807568878" y2="418"
            style="fill:None;stroke:black;stroke-width:1"></line>
        <line x1="549.5" y1="318" x2="649.5" y2="491.2050807568877"
            style="fill:None;stroke:black;stroke-width:1"></line>
        <line x1="549.5" y1="318" x2="449.50000000000006" y2="491.20508075688775"
            style="fill:None;stroke:black;stroke-width:1"></line>
        <line x1="549.5" y1="318" x2="376.2949192431123" y2="418.00000000000006"
            style="fill:None;stroke:black;stroke-width:1"></line>
    </g>
    <g id="group-overlay">
        <rect id="selectionRectangle" width="0" height="0" x="844.8182034304328"
            y="357.02274062557206" style="stroke-width:1;stroke:purple;fill-opacity:.1"
            hidden="true"></rect>
    </g>
</svg>